<?xml version="1.0" encoding="utf-8"?>
<!-- Uploaded to: SVG Repo, www.svgrepo.com, Generator: SVG Repo Mixer Tools -->
<svg width="800px" height="800px" viewBox="0 0 1024 1024" class="icon"  version="1.1" xmlns="http://www.w3.org/2000/svg"><path d="M452.266667 955.733333l-384-384c-34.133333-34.133333-34.133333-87.466667 0-121.6l384-384c34.133333-34.133333 87.466667-34.133333 121.6 0l384 384c34.133333 34.133333 34.133333 87.466667 0 121.6l-384 384c-34.133333 34.133333-89.6 34.133333-121.6 0z" fill="#FFC107" /><path d="M512 512m-42.666667 0a42.666667 42.666667 0 1 0 85.333334 0 42.666667 42.666667 0 1 0-85.333334 0Z" fill="#37474F" /><path d="M682.666667 512m-42.666667 0a42.666667 42.666667 0 1 0 85.333333 0 42.666667 42.666667 0 1 0-85.333333 0Z" fill="#37474F" /><path d="M341.333333 512m-42.666666 0a42.666667 42.666667 0 1 0 85.333333 0 42.666667 42.666667 0 1 0-85.333333 0Z" fill="#37474F" /></svg>